<svg enable-background="new 0 0 256 256" height="512" viewBox="0 0 256 256" width="512" xmlns="http://www.w3.org/2000/svg"><path d="m238 250.938h-220c-5.523 0-10-4.477-10-10v-133.514c0-5.523 4.477-10 10-10h220c5.523 0 10 4.477 10 10v133.514c0 5.522-4.477 10-10 10z" fill="#44c7b6"/><path d="m210 225.923h-164c-2.761 0-5-2.239-5-5v-93.484c0-2.761 2.239-5 5-5h164c2.761 0 5 2.239 5 5v93.484c0 2.761-2.239 5-5 5z" fill="#ff4a73"/><circle cx="128" cy="16.062" fill="#87828e" r="11"/><path d="m215 127.44v93.48c0 2.76-2.24 5-5 5h-15c2.76 0 5-2.24 5-5v-93.48c0-2.76-2.24-5-5-5h15c2.76 0 5 2.24 5 5z" fill="#ea2a6a"/><path d="m61 225.92h-15c-2.76 0-5-2.24-5-5v-93.48c0-2.76 2.24-5 5-5h15c-2.76 0-5 2.24-5 5v93.48c0 2.76 2.24 5 5 5z" fill="#f973a3"/><path d="m248 107.42v133.52c0 5.52-4.48 10-10 10h-15c5.52 0 10-4.48 10-10v-133.52c0-5.52-4.48-10-10-10h15c5.52 0 10 4.48 10 10z" fill="#3bb2a0"/><path d="m33 250.94h-15c-5.52 0-10-4.48-10-10v-133.52c0-5.52 4.48-10 10-10h15c-5.52 0-10 4.48-10 10v133.52c0 5.52 4.48 10 10 10z" fill="#4bdbc3"/><path d="m133 25.86c-1.5.77-3.2 1.2-5 1.2-6.08 0-11-4.92-11-11 0-6.07 4.92-11 11-11 1.8 0 3.5.43 5 1.2-3.56 1.82-6 5.53-6 9.8 0 4.28 2.44 7.98 6 9.8z" fill="#a4a4a5"/><g fill="#5f266d"><path d="m238 93.42h-19.66l-75.49-75.25c1.298-8.95-5.7-17.11-14.85-17.11-9.155 0-16.147 8.165-14.85 17.11l-75.49 75.25h-19.66c-7.72 0-14 6.28-14 14v133.52c0 7.72 6.28 14 14 14h220c7.72 0 14-6.28 14-14v-133.52c0-7.72-6.28-14-14-14zm6 147.52c0 3.31-2.69 6-6 6h-220c-3.31 0-6-2.69-6-6v-133.52c0-3.3 2.69-6 6-6h11.64l-4.9 4.88c-4.57.83-8.03 4.82-8.03 9.62 0 5.41 4.38 9.79 9.79 9.79s9.79-4.38 9.79-9.79c0-2.71-1.11-5.17-2.9-6.95l7.57-7.55h174.08l7.16 7.14c-2.05 1.79-3.35 4.42-3.35 7.36 0 5.41 4.39 9.79 9.79 9.79 5.41 0 9.79-4.38 9.79-9.79 0-4.39-2.9-8.11-6.9-9.35-.02-.02-.04-.04-.06-.06l-5.11-5.09h11.64c3.31 0 6 2.7 6 6zm-116-231.88c3.847 0 7 3.123 7 7 0 3.876-3.155 7-7 7-3.844 0-7-3.123-7-7 0-3.879 3.156-7 7-7zm-11.29 16.85c2.74 3.16 6.79 5.15 11.29 5.15s8.55-1.99 11.29-5.15l67.72 67.51h-158.02z"/><path d="m219 220.92v-93.48c0-4.96-4.04-9-9-9h-164c-4.96 0-9 4.04-9 9v93.48c0 4.97 4.04 9 9 9h164c4.96 0 9-4.03 9-9zm-8 0c0 .55-.45 1-1 1h-164c-.55 0-1-.45-1-1v-93.48c0-.55.45-1 1-1h164c.55 0 1 .45 1 1z"/><path d="m81 155.28c-10.1 0-17.15 7.9-17.15 19.2 0 10.95 6.85 18.6 16.65 18.6 8.54 0 17.15-5.95 17.15-19.25 0-10.92-6.85-18.55-16.65-18.55zm-.25 31.25c-6.36 0-9.25-6.3-9.25-12.15 0-6.25 2.88-12.55 9.3-12.55 6.36 0 9.25 6.32 9.25 12.2 0 6.22-2.88 12.5-9.3 12.5z"/><path d="m152.5 185.88h-8c-1.82 0-3.3-1.48-3.3-3.3v-2.55c0-1.82 1.48-3.3 3.3-3.3h6.5c4.373 0 4.35-6.6 0-6.6h-6.5c-1.82 0-3.3-1.48-3.3-3.3v-1.05c0-1.82 1.48-3.3 3.3-3.3h7.25c1.82 0 3.3-1.48 3.3-3.3v-.05c0-1.82-1.48-3.3-3.3-3.3h-14.6c-1.82 0-3.3 1.48-3.3 3.3v30.1c0 1.82 1.48 3.3 3.3 3.3h15.35c4.395 0 4.399-6.65 0-6.65z"/><path d="m124.14 158.88c-2.34-2.11-5.86-3.18-10.44-3.18-2.91 0-5.59.2-8.17.6-.96.16-1.68.97-1.68 1.94v32.46c0 1.08.88 1.95 1.96 1.95h3.43c1.08 0 1.96-.87 1.96-1.95v-9.29c0-1.09.89-1.96 1.98-1.96h.02c4.82 0 8.87-1.48 11.38-4.15 4.02-4.16 4.239-12.37-.44-16.42zm-11.01 14.07c-1.07 0-1.93-.88-1.93-1.96v-6.87c0-1.06.84-1.94 1.9-1.96 10.259 0 9.245 10.79.03 10.79z"/><path d="m190.59 155.83h-3.98c-.86 0-1.56.7-1.56 1.56v15.42c.01 1.56-2.02 2.13-2.85.82-.01-.02-.02-.04-.03-.05l-10.78-17.03c-.29-.45-.79-.72-1.32-.72h-4.66c-.86 0-1.56.7-1.56 1.56v33.58c0 .86.7 1.56 1.56 1.56h3.98c.86 0 1.56-.7 1.56-1.56v-16.14c-.01-1.57 2.05-2.17 2.88-.83.465.744 9.093 14.543 11.13 17.8.29.45.79.73 1.32.73h4.31c.86 0 1.56-.7 1.56-1.56v-33.58c0-.86-.7-1.56-1.56-1.56z"/><path d="m225.672 242.327h-3.717c-2.209 0-4-1.791-4-4s1.791-4 4-4h3.717c1.927 0 3.495-1.568 3.495-3.495v-6.505c0-2.209 1.791-4 4-4s4 1.791 4 4v6.505c0 6.338-5.156 11.495-11.495 11.495zm-18.717 0h-4.778c-2.209 0-4-1.791-4-4s1.791-4 4-4h4.778c2.209 0 4 1.791 4 4s-1.791 4-4 4z"/></g></svg>